<svg width="24" height="24" viewBox="0 0 24 24" fill="none" xmlns="http://www.w3.org/2000/svg">
<path fill-rule="evenodd" clip-rule="evenodd" d="M7 7H17V17H7V7ZM6 7C6 6.44771 6.44772 6 7 6H17C17.5523 6 18 6.44772 18 7V17C18 17.5523 17.5523 18 17 18H7C6.44771 18 6 17.5523 6 17V7ZM11.5 9.5C11.5 9.22386 11.7239 9 12 9C12.2761 9 12.5 9.22386 12.5 9.5V11.5H14.4997C14.7759 11.5 15 11.7239 15 12C15 12.2761 14.7761 12.5 14.5 12.5H12.5V14.4996C12.5 14.7757 12.2761 15 12 15C11.7239 15 11.5 14.7761 11.5 14.5V12.5H9.5C9.22386 12.5 9 12.2761 9 12C9 11.7239 9.22386 11.5 9.5 11.5H11.5V9.5Z" fill="#0A0A0A"/>
</svg>
