<svg width="24" height="24" viewBox="0 0 24 24" fill="none" xmlns="http://www.w3.org/2000/svg">
<path d="M5 6.5C5 5.67157 5.67157 5 6.5 5H17.5C18.3284 5 19 5.67157 19 6.5V17.5C19 18.3284 18.3284 19 17.5 19H6.5C5.67157 19 5 18.3284 5 17.5V6.5Z" fill="#4CAF50"/>
<path fill-rule="evenodd" clip-rule="evenodd" d="M15.8123 9.10958C16.028 9.28209 16.0629 9.59674 15.8904 9.81237L11.8904 14.8124C11.8016 14.9234 11.6697 14.9914 11.5277 14.9993C11.3856 15.0071 11.247 14.9541 11.1464 14.8536L8.14645 11.8536C7.95118 11.6583 7.95118 11.3417 8.14645 11.1465C8.34171 10.9512 8.65829 10.9512 8.85355 11.1465L11.4585 13.7515L15.1096 9.18767C15.2821 8.97204 15.5967 8.93708 15.8123 9.10958Z" fill="#FCFCFC"/>
</svg>
