<svg width="24" height="24" viewBox="0 0 24 24" fill="none" xmlns="http://www.w3.org/2000/svg">
<path fill-rule="evenodd" clip-rule="evenodd" d="M9 11.707C9 11.4418 9.10536 11.1875 9.29289 10.9999L18.2929 1.99992C18.6834 1.6094 19.3166 1.6094 19.7071 1.99992L22 4.29282C22.3905 4.68334 22.3905 5.31651 22 5.70703L13 14.707C12.8125 14.8946 12.5581 14.9999 12.2929 14.9999H10C9.44772 14.9999 9 14.5522 9 13.9999V11.707ZM19 2.70703L16.707 5.00004L18.9999 7.29293L21.2929 4.99992L19 2.70703ZM10 11.707L15.9999 5.70714L18.2928 8.00004L12.2929 13.9999H10L10 11.707ZM5 6C5 5.44772 5.44772 5 6 5H10.5C10.7761 5 11 4.77614 11 4.5C11 4.22386 10.7761 4 10.5 4H6C4.89543 4 4 4.89543 4 6V18C4 19.1046 4.89543 20 6 20H18C19.1046 20 20 19.1046 20 18V13.5C20 13.2239 19.7761 13 19.5 13C19.2239 13 19 13.2239 19 13.5V18C19 18.5523 18.5523 19 18 19H6C5.44772 19 5 18.5523 5 18V6Z" fill="#0A0A0A"/>
</svg>
