<svg width="32" height="32" viewBox="0 0 32 32" fill="none" xmlns="http://www.w3.org/2000/svg">
<g clip-path="url(#clip0_1906_10888)">
<circle cx="16" cy="16" r="16" fill="#0A0A0A"/>
<path d="M7.5 11.5C7.5 10.3954 8.39543 9.5 9.5 9.5H22.5C23.6046 9.5 24.5 10.3954 24.5 11.5V20.5C24.5 21.6046 23.6046 22.5 22.5 22.5H9.5C8.39543 22.5 7.5 21.6046 7.5 20.5V11.5Z" fill="#FCFCFC" stroke="#0A0A0A"/>
<path d="M22.4689 9.5H9.53113C7.4802 9.5 6.75815 12.2189 8.53885 13.2365L15.0077 16.933C15.6226 17.2843 16.3774 17.2843 16.9923 16.933L23.4611 13.2365C25.2418 12.2189 24.5198 9.5 22.4689 9.5Z" fill="#FCFCFC" stroke="#0A0A0A"/>
</g>
<defs>
<clipPath id="clip0_1906_10888">
<rect width="32" height="32" fill="white"/>
</clipPath>
</defs>
</svg>
