<svg width="24" height="24" viewBox="0 0 24 24" fill="none" xmlns="http://www.w3.org/2000/svg">
<path fill-rule="evenodd" clip-rule="evenodd" d="M11.8293 6H20C21.1046 6 22 6.89543 22 8V18C22 19.1046 21.1046 20 20 20H4C2.89543 20 2 19.1046 2 18V7V6C2 4.89543 2.89543 4 4 4H9C10.3062 4 11.4175 4.83481 11.8293 6ZM3 6H10.7324C10.3866 5.4022 9.74028 5 9 5H4C3.44772 5 3 5.44772 3 6ZM3 7V18C3 18.5523 3.44772 19 4 19H20C20.5523 19 21 18.5523 21 18V8C21 7.44772 20.5523 7 20 7H12H3Z" fill="#0A0A0A"/>
</svg>
