<svg width="32" height="32" viewBox="0 0 32 32" fill="none" xmlns="http://www.w3.org/2000/svg">
<g clip-path="url(#clip0_1906_10881)">
<circle cx="16" cy="16" r="16" fill="#0A0A0A"/>
<path fill-rule="evenodd" clip-rule="evenodd" d="M7.73489 12.6256C7.32911 11.4467 7.37745 8 8.28655 8C9.2464 8 10.559 8.65631 11.1662 8.95992L11.1664 8.96C11.5329 9.14326 11.8062 9.30321 12.0396 9.43982C12.276 9.57817 12.4716 9.6926 12.6817 9.78311C13.8882 9.5176 15.0566 9.44 15.9664 9.44C16.8762 9.44 18.0446 9.5176 19.2511 9.78311C19.4612 9.6926 19.6568 9.57817 19.8932 9.43982C20.1266 9.30321 20.3999 9.14326 20.7664 8.96L20.7666 8.95992C21.3738 8.65631 22.6864 8 23.6463 8C24.5554 8 24.6037 11.4467 24.1979 12.6256C25.0333 13.7209 25.5664 15.1805 25.5664 17.12C25.5664 22.058 22.1107 23.8858 19.0082 24.508C19.4182 24.9844 19.6943 25.5798 19.7792 26.2371C19.8064 26.4477 19.8064 26.6984 19.8064 27.2V30.0021C19.8064 30.9086 20.3864 31.7133 21.2464 32H10.6864C11.5464 31.7133 12.1264 30.9086 12.1264 30.0021V27.824C9.47934 28.5289 7.45038 27.5719 6.8464 25.76C6.54527 24.8566 5.63412 23.9926 4.94623 23.5846C4.7381 23.4611 4.6641 23.1423 4.83521 22.9712C4.8936 22.9128 4.9736 22.8796 5.05615 22.8815C6.73259 22.921 7.26886 23.7357 8.08214 24.9711L8.08233 24.9713C8.14828 25.0715 8.21605 25.1745 8.2864 25.28C8.99066 26.3364 11.2287 26.2626 12.3356 25.5028C12.4731 25.1354 12.6738 24.7994 12.9246 24.508C9.82215 23.8858 6.3664 22.058 6.3664 17.12C6.3664 15.1805 6.89949 13.7209 7.73489 12.6256Z" fill="#FCFCFC"/>
</g>
<defs>
<clipPath id="clip0_1906_10881">
<rect width="32" height="32" fill="white"/>
</clipPath>
</defs>
</svg>
