<svg width="24" height="24" viewBox="0 0 24 24" fill="none" xmlns="http://www.w3.org/2000/svg">
<path fill-rule="evenodd" clip-rule="evenodd" d="M10 5H18C18.5523 5 19 5.44772 19 6V18C19 18.5523 18.5523 19 18 19H10C9.44772 19 9 18.5523 9 18V16.5C9 16.2239 8.77614 16 8.5 16C8.22386 16 8 16.2239 8 16.5V18C8 19.1046 8.89543 20 10 20H18C19.1046 20 20 19.1046 20 18V6C20 4.89543 19.1046 4 18 4H10C8.89543 4 8 4.89543 8 6V7.5C8 7.77614 8.22386 8 8.5 8C8.77614 8 9 7.77614 9 7.5V6C9 5.44772 9.44772 5 10 5ZM11.1464 8.64645C11.3417 8.45118 11.6583 8.45118 11.8536 8.64645L14.7828 11.5757C15.0172 11.8101 15.0172 12.1899 14.7828 12.4243L11.8536 15.3536C11.6583 15.5488 11.3417 15.5488 11.1464 15.3536C10.9512 15.1583 10.9512 14.8417 11.1464 14.6464L13.2929 12.5H4.5C4.22386 12.5 4 12.2761 4 12C4 11.7239 4.22386 11.5 4.5 11.5H13.2929L11.1464 9.35355C10.9512 9.15829 10.9512 8.84171 11.1464 8.64645Z" fill="#0A0A0A"/>
</svg>
