<svg width="123" height="28" viewBox="0 0 123 28" fill="none" xmlns="http://www.w3.org/2000/svg">
<path d="M53.6699 19.1629V8.94971H55.7306V19.1629H53.6699Z" fill="#0A0A0A"/>
<path d="M54.71 5.00049C53.9974 5.00049 53.41 5.52713 53.4004 6.18544C53.41 6.84375 53.9974 7.3798 54.71 7.37039C55.4129 7.3798 56.0003 6.84375 56.0003 6.18544C56.0003 5.52713 55.4129 5.00049 54.71 5.00049Z" fill="#FF8C42"/>
<path d="M49.3022 8.94971H51.3628V19.8212C51.3628 21.8807 50.1977 22.9905 48.0311 22.9999C47.8867 22.9905 47.7615 22.9905 47.6074 22.9811V21.2695H47.9348C48.8977 21.2695 49.3022 20.7522 49.3022 19.8024V8.94971Z" fill="#0A0A0A"/>
<path d="M50.3233 5.00049C49.6107 5.00049 49.0233 5.52713 49.0137 6.18544C49.0233 6.84375 49.6107 7.3798 50.3233 7.37039C51.0262 7.3798 51.6136 6.84375 51.6136 6.18544C51.6136 5.52713 51.0262 5.00049 50.3233 5.00049Z" fill="#FF8C42"/>
<path d="M38.3106 16.2859C38.301 13.9536 40.3327 13.3518 42.2201 13.2201C42.9134 13.1825 44.483 13.0978 44.9644 13.079L44.9548 12.2609C44.9644 11.1041 44.2326 10.4364 42.8364 10.4364C41.6231 10.4364 40.8912 10.9819 40.6794 11.7342H38.638C38.8209 10.0414 40.4387 8.81885 42.9134 8.81885C44.5793 8.81885 47.0058 9.41132 47.0155 12.3737V19.1637H45.0126V17.7718H44.9355C44.5311 18.5336 43.5682 19.3894 41.8349 19.3894C39.8513 19.3894 38.301 18.2797 38.3106 16.2859ZM40.3135 16.3047C40.3135 17.2828 41.1416 17.7812 42.2971 17.7906C43.9726 17.7812 44.9741 16.6903 44.9741 15.4772L44.9644 14.5461C44.4926 14.5743 43.0001 14.6778 42.509 14.706C41.1609 14.8 40.3135 15.2985 40.3135 16.3047Z" fill="#0A0A0A"/>
<path d="M29.7262 13.1065V19.163H27.6655V5.54541H29.6877V10.6238H29.8225C30.3136 9.51406 31.2958 8.81814 32.9231 8.81814C35.0704 8.81814 36.5052 10.1159 36.5052 12.6739V19.163H34.4445V12.9185C34.4445 11.4137 33.6164 10.5485 32.2298 10.5485C30.7758 10.5485 29.7262 11.4796 29.7262 13.1065Z" fill="#0A0A0A"/>
<path d="M20.9679 19.3706C18.0021 19.3706 16.0666 17.264 16.0762 14.1041C16.0666 10.9254 18.0021 8.81885 20.9679 8.81885C23.9144 8.81885 25.8403 10.9254 25.8403 14.1041C25.8403 17.264 23.9144 19.3706 20.9679 19.3706ZM18.1369 14.1041C18.1369 16.0508 19.0517 17.6966 20.9679 17.6966C22.8552 17.6966 23.7604 16.0508 23.7604 14.1041C23.7604 12.148 22.8552 10.4834 20.9679 10.474C19.0517 10.4834 18.1369 12.148 18.1369 14.1041Z" fill="#0A0A0A"/>
<path d="M0 19.1637V8.95051H1.98363V10.6245H2.09918C2.54213 9.48656 3.57246 8.81885 4.94945 8.81885C6.34569 8.81885 7.31825 9.48656 7.7612 10.6245H7.87675C8.36784 9.52418 9.5041 8.81885 11.0159 8.81885C12.9032 8.81885 14.2417 9.97559 14.2513 12.3173V19.1637H12.1907V12.5054C12.1907 11.1229 11.3048 10.5493 10.2263 10.5493C8.90708 10.5493 8.14637 11.4333 8.14637 12.6558V19.1637H6.10496V12.3925C6.10496 11.2734 5.32499 10.5493 4.19837 10.5493C3.04285 10.5493 2.06067 11.4897 2.06067 12.8627V19.1637H0Z" fill="#0A0A0A"/>
<rect x="65" y="3" width="58" height="22" fill="#0A0A0A"/>
<path d="M110.987 12.8191C110.809 12.0586 110.203 11.5634 109.152 11.5634C108.066 11.5634 107.291 12.1205 107.3 12.8545C107.291 13.4205 107.745 13.8273 108.814 14.0749L110.346 14.4287C112.127 14.8266 112.991 15.6668 113 17.0287C112.991 18.762 111.513 20.0001 109.046 20.0001C106.721 20.0001 105.349 18.9742 105.109 17.1878H107.05C107.22 18.0545 107.879 18.4878 109.028 18.479C110.257 18.4878 111.05 17.9749 111.058 17.1702C111.05 16.5511 110.586 16.1531 109.562 15.9144L108.048 15.596C106.302 15.2157 105.394 14.2872 105.394 12.9606C105.394 11.2538 106.89 10.0776 109.135 10.0776C111.29 10.0776 112.635 11.1654 112.822 12.8191H110.987Z" fill="white"/>
<path d="M104.187 10.2012L100.678 19.8053H98.6293L95.1201 10.2012H97.1686L99.609 17.5767H99.698L102.138 10.2012H104.187Z" fill="white"/>
<path d="M90.315 20.0001C87.4649 20.0001 85.7104 18.0457 85.7193 15.0654C85.7104 12.1117 87.4917 10.0776 90.1903 10.0776C92.3902 10.0776 94.4832 11.4307 94.4832 14.9062V15.5783H87.6074C87.6609 17.4089 88.7475 18.4436 90.3328 18.4436C91.4105 18.4436 92.1141 17.9838 92.4348 17.4001H94.3586C93.931 18.9565 92.4437 20.0001 90.315 20.0001ZM87.6164 14.1634H92.6129C92.6129 12.7042 91.6599 11.6253 90.2081 11.6341C88.6851 11.6253 87.6965 12.8103 87.6164 14.1634Z" fill="white"/>
<path d="M79.0435 20C76.71 19.9912 75 18.1252 75 15.0299C75 11.8993 76.7368 10.0776 79.0614 10.0776C80.8605 10.0776 81.5106 11.1565 81.858 11.7578H81.947V7H83.853V19.8054H82.0005V18.302H81.858C81.5017 18.9299 80.807 19.9912 79.0435 20ZM76.9416 14.9946C76.9327 16.9224 77.8055 18.3816 79.471 18.3905C81.092 18.3816 82.0005 17.0109 82.0005 14.9946C82.0005 12.9959 81.1098 11.6782 79.471 11.6871C77.7877 11.6782 76.9327 13.102 76.9416 14.9946Z" fill="white"/>
<path d="M68 12.8693C69.5288 12.8693 70.0481 12.3688 70.0385 11.1175V8.9319C70.0481 6.51273 71.2981 5.72024 74 5.72858V7.13003C72.4135 7.13838 71.9712 7.72232 71.9615 9.01532V11.6347C71.9712 12.5774 71.5865 13.3281 69.8846 13.6201V13.8287C71.5865 14.1206 71.9712 14.8714 71.9615 15.8057V18.4251C71.9712 19.7264 72.4135 20.3104 74 20.3104V21.7285C71.2981 21.7202 70.0481 20.936 70.0385 18.5085V16.3396C70.0481 15.0883 69.5288 14.5711 68 14.5711V12.8693Z" fill="white"/>
<path d="M120 14.5711C118.471 14.5711 117.952 15.0883 117.962 16.3396V18.5085C117.952 20.936 116.702 21.7202 114 21.7285V20.3104C115.587 20.3104 116.029 19.7264 116.038 18.4251V15.8057C116.029 14.8714 116.413 14.1206 118.115 13.8287V13.6201C116.413 13.3281 116.029 12.5774 116.038 11.6347V9.01532C116.029 7.72232 115.587 7.13838 114 7.13003V5.72858C116.702 5.72024 117.952 6.51273 117.962 8.9319V11.1175C117.952 12.3688 118.471 12.8693 120 12.8693V14.5711Z" fill="white"/>
</svg>
