<svg width="88" height="88" viewBox="0 0 88 88" fill="none" xmlns="http://www.w3.org/2000/svg">
<rect width="88" height="88" fill="#D7DAE0"/>
<path d="M45.0003 48.5001C44.6171 53.6201 39.6726 63.5155 26.0002 62.9999" stroke="#FCFCFC" stroke-width="8" stroke-linecap="round"/>
<path d="M66.5 77C71.8836 68.1789 66.5 46.5 58.5 46.5L42.5 48.5C45.3 60.1 37.3333 68.6667 34 71C41.6 87.4 60.4675 86.8844 66.5 77Z" fill="#F2F3F5"/>
<path d="M55.7682 75.7632L42.7947 81.1689C42.2874 81.3802 41.7155 81.3735 41.2132 81.1503L18.813 71.1947C17.2787 70.5128 17.2168 68.358 18.7094 67.5891L30.6372 61.4445C31.182 61.1638 31.8255 61.1485 32.3831 61.4028L55.829 72.0974C57.4176 72.8221 57.3799 75.0917 55.7682 75.7632Z" fill="#FCFCFC"/>
<path d="M55.8668 73.8666L42.7805 79.1829C42.2814 79.3857 41.7216 79.3785 41.2279 79.1631L18.7601 69.359C17.151 68.6568 17.1627 66.3704 18.7789 65.6847L30.5918 60.6732C30.8517 60.5629 31.1462 60.5677 31.4024 60.6863L55.9106 72.0327C56.7042 72.4001 56.6771 73.5374 55.8668 73.8666Z" fill="#E4E6EB"/>
<path d="M14.9512 68.2563L14.1229 47.1333C14.0656 45.6724 15.5441 44.6457 16.8929 45.2098L40.2971 54.9969C41.0282 55.3027 41.5098 56.0113 41.5251 56.8037L41.9396 78.3573C41.9677 79.821 40.4654 80.818 39.1277 80.2234L16.1374 70.0055C15.4411 69.696 14.9811 69.0177 14.9512 68.2563Z" fill="#FCFCFC"/>
<path d="M60.5 52.5C61.6667 57.5 60.7 68.4 47.5 72" stroke="#FCFCFC" stroke-width="8" stroke-linecap="round"/>
<circle cx="52" cy="36" r="16" fill="#FCFCFC"/>
<rect x="47" y="41" width="2" height="4" rx="1" fill="#D7DAE0"/>
<rect x="40" y="39" width="2" height="4" rx="1" fill="#D7DAE0"/>
</svg>
