<svg width="24" height="24" viewBox="0 0 24 24" fill="none" xmlns="http://www.w3.org/2000/svg">
<path fill-rule="evenodd" clip-rule="evenodd" d="M17 10.5C17 14.0899 14.0899 17 10.5 17C6.91015 17 4 14.0899 4 10.5C4 6.91015 6.91015 4 10.5 4C14.0899 4 17 6.91015 17 10.5ZM15.438 16.1451C14.1188 17.3001 12.3911 18 10.5 18C6.35786 18 3 14.6421 3 10.5C3 6.35786 6.35786 3 10.5 3C14.6421 3 18 6.35786 18 10.5C18 12.3911 17.3001 14.1188 16.1451 15.438L20.8536 20.1465C21.0489 20.3417 21.0489 20.6583 20.8536 20.8536C20.6583 21.0489 20.3417 21.0489 20.1465 20.8536L15.438 16.1451Z" fill="#0A0A0A"/>
</svg>
