<svg width="24" height="24" viewBox="0 0 24 24" fill="none" xmlns="http://www.w3.org/2000/svg">
<path fill-rule="evenodd" clip-rule="evenodd" d="M4.12617 7H16.0592C16.3612 7 16.6489 7.1208 16.8506 7.33225L20.6652 11.3322C21.0275 11.7122 21.0275 12.2878 20.6652 12.6678L16.8506 16.6678C16.6489 16.8792 16.3612 17 16.0592 17H4.12617C3.53904 17 3.06308 16.5523 3.06308 16V8C3.06308 7.44772 3.53904 7 4.12617 7ZM2 8C2 6.89543 2.95192 6 4.12617 6H16.0592C16.6632 6 17.2386 6.2416 17.6419 6.66449L21.4565 10.6645C22.1812 11.4244 22.1812 12.5756 21.4565 13.3355L17.6419 17.3355C17.2386 17.7584 16.6632 18 16.0592 18H4.12617C2.95192 18 2 17.1046 2 16V8ZM17 12C17 12.5523 16.5523 13 16 13C15.4477 13 15 12.5523 15 12C15 11.4477 15.4477 11 16 11C16.5523 11 17 11.4477 17 12ZM18 12C18 13.1046 17.1046 14 16 14C14.8954 14 14 13.1046 14 12C14 10.8954 14.8954 10 16 10C17.1046 10 18 10.8954 18 12Z" fill="#0A0A0A"/>
</svg>
