<svg width="160" height="160" viewBox="0 0 160 160" fill="none" xmlns="http://www.w3.org/2000/svg">
<g filter="url(#filter0_f_2506_11422)">
<ellipse cx="80" cy="144" rx="60" ry="8" fill="#E4E6EB"/>
</g>
<path d="M30.2235 73.3978C30.6524 71.7974 32.2974 70.8476 33.8978 71.2765L34.8637 71.5353C35.9306 71.8212 36.5638 72.9178 36.2779 73.9848L26.4428 110.69C26.1569 111.757 25.0602 112.39 23.9933 112.104L22.0615 111.587C20.9945 111.301 20.3614 110.204 20.6472 109.137L30.2235 73.3978Z" fill="white"/>
<path d="M129.776 73.3978C129.348 71.7974 127.703 70.8476 126.102 71.2765L125.136 71.5353C124.069 71.8212 123.436 72.9178 123.722 73.9848L133.557 110.69C133.843 111.757 134.94 112.39 136.007 112.104L137.939 111.587C139.005 111.301 139.639 110.204 139.353 109.137L129.776 73.3978Z" fill="white"/>
<mask id="path-5-inside-1_2506_11422" fill="white">
<path d="M30 75C30 71.6863 32.6863 69 36 69H124C127.314 69 130 71.6863 130 75V138C130 141.314 127.314 144 124 144H36C32.6863 144 30 141.314 30 138V75Z"/>
</mask>
<path d="M30 75C30 71.6863 32.6863 69 36 69H124C127.314 69 130 71.6863 130 75V138C130 141.314 127.314 144 124 144H36C32.6863 144 30 141.314 30 138V75Z" fill="url(#paint0_linear_2506_11422)"/>
<path d="M30 69H130H30ZM130 138C130 142.418 126.418 146 122 146H38C33.5817 146 30 142.418 30 138C30 140.209 32.6863 142 36 142H124C127.314 142 130 140.209 130 138ZM30 144V69V144ZM130 69V144V69Z" fill="#E4E6EB" mask="url(#path-5-inside-1_2506_11422)"/>
<path d="M33 73C33 72.4477 33.4477 72 34 72H126C126.552 72 127 72.4477 127 73V77C127 77.5523 126.552 78 126 78H34C33.4477 78 33 77.5523 33 77V73Z" fill="#D2D5DB"/>
<circle cx="80" cy="69" r="20" fill="url(#paint1_linear_2506_11422)"/>
<g filter="url(#filter1_d_2506_11422)">
<circle cx="59" cy="78" r="6" fill="url(#paint2_linear_2506_11422)"/>
</g>
<g filter="url(#filter2_d_2506_11422)">
<circle cx="100" cy="78" r="6" fill="url(#paint3_linear_2506_11422)"/>
</g>
<rect x="73" y="65" width="3" height="6" rx="1.5" fill="#D2D5DB"/>
<rect x="84" y="65" width="3" height="6" rx="1.5" fill="#D2D5DB"/>
<mask id="path-13-inside-2_2506_11422" fill="white">
<path d="M30 84C30 80.6863 32.6863 78 36 78H124C127.314 78 130 80.6863 130 84V112C130 115.314 127.314 118 124 118H36C32.6863 118 30 115.314 30 112V84Z"/>
</mask>
<path d="M30 84C30 80.6863 32.6863 78 36 78H124C127.314 78 130 80.6863 130 84V112C130 115.314 127.314 118 124 118H36C32.6863 118 30 115.314 30 112V84Z" fill="white"/>
<path d="M30 78H130H30ZM130 112C130 116.971 125.971 121 121 121H39C34.0294 121 30 116.971 30 112C30 113.657 32.6863 115 36 115H124C127.314 115 130 113.657 130 112ZM30 118V78V118ZM130 78V118V78Z" fill="#F2F3F5" mask="url(#path-13-inside-2_2506_11422)"/>
<defs>
<filter id="filter0_f_2506_11422" x="16" y="132" width="128" height="24" filterUnits="userSpaceOnUse" color-interpolation-filters="sRGB">
<feFlood flood-opacity="0" result="BackgroundImageFix"/>
<feBlend mode="normal" in="SourceGraphic" in2="BackgroundImageFix" result="shape"/>
<feGaussianBlur stdDeviation="2" result="effect1_foregroundBlur_2506_11422"/>
</filter>
<filter id="filter1_d_2506_11422" x="49" y="70" width="20" height="20" filterUnits="userSpaceOnUse" color-interpolation-filters="sRGB">
<feFlood flood-opacity="0" result="BackgroundImageFix"/>
<feColorMatrix in="SourceAlpha" type="matrix" values="0 0 0 0 0 0 0 0 0 0 0 0 0 0 0 0 0 0 127 0" result="hardAlpha"/>
<feOffset dy="2"/>
<feGaussianBlur stdDeviation="2"/>
<feComposite in2="hardAlpha" operator="out"/>
<feColorMatrix type="matrix" values="0 0 0 0 0.843137 0 0 0 0 0.854902 0 0 0 0 0.878431 0 0 0 1 0"/>
<feBlend mode="normal" in2="BackgroundImageFix" result="effect1_dropShadow_2506_11422"/>
<feBlend mode="normal" in="SourceGraphic" in2="effect1_dropShadow_2506_11422" result="shape"/>
</filter>
<filter id="filter2_d_2506_11422" x="90" y="70" width="20" height="20" filterUnits="userSpaceOnUse" color-interpolation-filters="sRGB">
<feFlood flood-opacity="0" result="BackgroundImageFix"/>
<feColorMatrix in="SourceAlpha" type="matrix" values="0 0 0 0 0 0 0 0 0 0 0 0 0 0 0 0 0 0 127 0" result="hardAlpha"/>
<feOffset dy="2"/>
<feGaussianBlur stdDeviation="2"/>
<feComposite in2="hardAlpha" operator="out"/>
<feColorMatrix type="matrix" values="0 0 0 0 0.843137 0 0 0 0 0.854902 0 0 0 0 0.878431 0 0 0 1 0"/>
<feBlend mode="normal" in2="BackgroundImageFix" result="effect1_dropShadow_2506_11422"/>
<feBlend mode="normal" in="SourceGraphic" in2="effect1_dropShadow_2506_11422" result="shape"/>
</filter>
<linearGradient id="paint0_linear_2506_11422" x1="80" y1="69" x2="80" y2="144" gradientUnits="userSpaceOnUse">
<stop offset="0.72" stop-color="white"/>
<stop offset="1" stop-color="#F0F1F5"/>
</linearGradient>
<linearGradient id="paint1_linear_2506_11422" x1="80" y1="49" x2="80" y2="89" gradientUnits="userSpaceOnUse">
<stop offset="0.51" stop-color="white"/>
<stop offset="1" stop-color="#F0F1F5"/>
</linearGradient>
<linearGradient id="paint2_linear_2506_11422" x1="59" y1="72" x2="59" y2="84" gradientUnits="userSpaceOnUse">
<stop offset="0.205" stop-color="white"/>
<stop offset="1" stop-color="#F0F1F5"/>
</linearGradient>
<linearGradient id="paint3_linear_2506_11422" x1="100" y1="72" x2="100" y2="84" gradientUnits="userSpaceOnUse">
<stop offset="0.205" stop-color="white"/>
<stop offset="1" stop-color="#F0F1F5"/>
</linearGradient>
</defs>
</svg>
