<svg width="160" height="160" viewBox="0 0 160 160" fill="none" xmlns="http://www.w3.org/2000/svg">
<circle cx="80" cy="74" r="20" fill="url(#paint0_linear_2522_14422)"/>
<g filter="url(#filter0_d_2522_14422)">
<circle cx="59" cy="83" r="6" fill="url(#paint1_linear_2522_14422)"/>
</g>
<g filter="url(#filter1_d_2522_14422)">
<circle cx="100" cy="83" r="6" fill="url(#paint2_linear_2522_14422)"/>
</g>
<rect x="73" y="70" width="3" height="6" rx="1.5" fill="#D2D5DB"/>
<rect x="84" y="70" width="3" height="6" rx="1.5" fill="#D2D5DB"/>
<g filter="url(#filter2_f_2522_14422)">
<ellipse cx="80" cy="144" rx="60" ry="8" fill="#EBECF0"/>
</g>
<mask id="path-8-outside-1_2522_14422" maskUnits="userSpaceOnUse" x="30" y="113" width="100" height="30" fill="black">
<rect fill="white" x="30" y="113" width="100" height="30"/>
<path d="M30 119C30 115.686 32.6863 113 36 113H124C127.314 113 130 115.686 130 119V135C130 138.314 127.314 141 124 141H36C32.6863 141 30 138.314 30 135V119Z"/>
</mask>
<path d="M30 119C30 115.686 32.6863 113 36 113H124C127.314 113 130 115.686 130 119V135C130 138.314 127.314 141 124 141H36C32.6863 141 30 138.314 30 135V119Z" fill="white"/>
<path d="M30 113H130H30ZM130 135C130 139.418 126.418 143 122 143H38C33.5817 143 30 139.418 30 135C30 137.209 32.6863 139 36 139H124C127.314 139 130 137.209 130 135ZM30 141V113V141ZM130 113V141V113Z" fill="#F7F8FA" mask="url(#path-8-outside-1_2522_14422)"/>
<circle cx="45" cy="127" r="5" fill="#E4E6EB"/>
<rect x="80" y="129" width="40" height="3" rx="1.5" fill="#E4E6EB"/>
<rect x="80" y="122" width="40" height="3" rx="1.5" fill="#E4E6EB"/>
<mask id="path-13-outside-2_2522_14422" maskUnits="userSpaceOnUse" x="30" y="83" width="100" height="30" fill="black">
<rect fill="white" x="30" y="83" width="100" height="30"/>
<path d="M30 89C30 85.6863 32.6863 83 36 83H124C127.314 83 130 85.6863 130 89V105C130 108.314 127.314 111 124 111H36C32.6863 111 30 108.314 30 105V89Z"/>
</mask>
<path d="M30 89C30 85.6863 32.6863 83 36 83H124C127.314 83 130 85.6863 130 89V105C130 108.314 127.314 111 124 111H36C32.6863 111 30 108.314 30 105V89Z" fill="white"/>
<path d="M30 83H130H30ZM130 105C130 109.418 126.418 113 122 113H38C33.5817 113 30 109.418 30 105C30 107.209 32.6863 109 36 109H124C127.314 109 130 107.209 130 105ZM30 111V83V111ZM130 83V111V83Z" fill="#F7F8FA" mask="url(#path-13-outside-2_2522_14422)"/>
<circle cx="45" cy="97" r="5" fill="#E4E6EB"/>
<rect x="80" y="99" width="40" height="3" rx="1.5" fill="#E4E6EB"/>
<rect x="80" y="92" width="40" height="3" rx="1.5" fill="#E4E6EB"/>
<defs>
<filter id="filter0_d_2522_14422" x="49" y="75" width="20" height="20" filterUnits="userSpaceOnUse" color-interpolation-filters="sRGB">
<feFlood flood-opacity="0" result="BackgroundImageFix"/>
<feColorMatrix in="SourceAlpha" type="matrix" values="0 0 0 0 0 0 0 0 0 0 0 0 0 0 0 0 0 0 127 0" result="hardAlpha"/>
<feOffset dy="2"/>
<feGaussianBlur stdDeviation="2"/>
<feComposite in2="hardAlpha" operator="out"/>
<feColorMatrix type="matrix" values="0 0 0 0 0.843137 0 0 0 0 0.854902 0 0 0 0 0.878431 0 0 0 1 0"/>
<feBlend mode="normal" in2="BackgroundImageFix" result="effect1_dropShadow_2522_14422"/>
<feBlend mode="normal" in="SourceGraphic" in2="effect1_dropShadow_2522_14422" result="shape"/>
</filter>
<filter id="filter1_d_2522_14422" x="90" y="75" width="20" height="20" filterUnits="userSpaceOnUse" color-interpolation-filters="sRGB">
<feFlood flood-opacity="0" result="BackgroundImageFix"/>
<feColorMatrix in="SourceAlpha" type="matrix" values="0 0 0 0 0 0 0 0 0 0 0 0 0 0 0 0 0 0 127 0" result="hardAlpha"/>
<feOffset dy="2"/>
<feGaussianBlur stdDeviation="2"/>
<feComposite in2="hardAlpha" operator="out"/>
<feColorMatrix type="matrix" values="0 0 0 0 0.843137 0 0 0 0 0.854902 0 0 0 0 0.878431 0 0 0 1 0"/>
<feBlend mode="normal" in2="BackgroundImageFix" result="effect1_dropShadow_2522_14422"/>
<feBlend mode="normal" in="SourceGraphic" in2="effect1_dropShadow_2522_14422" result="shape"/>
</filter>
<filter id="filter2_f_2522_14422" x="16" y="132" width="128" height="24" filterUnits="userSpaceOnUse" color-interpolation-filters="sRGB">
<feFlood flood-opacity="0" result="BackgroundImageFix"/>
<feBlend mode="normal" in="SourceGraphic" in2="BackgroundImageFix" result="shape"/>
<feGaussianBlur stdDeviation="2" result="effect1_foregroundBlur_2522_14422"/>
</filter>
<linearGradient id="paint0_linear_2522_14422" x1="80" y1="54" x2="80" y2="94" gradientUnits="userSpaceOnUse">
<stop offset="0.5" stop-color="white"/>
<stop offset="1" stop-color="#F0F1F5"/>
</linearGradient>
<linearGradient id="paint1_linear_2522_14422" x1="59" y1="77" x2="59" y2="89" gradientUnits="userSpaceOnUse">
<stop offset="0.205" stop-color="white"/>
<stop offset="1" stop-color="#F0F1F5"/>
</linearGradient>
<linearGradient id="paint2_linear_2522_14422" x1="100" y1="77" x2="100" y2="89" gradientUnits="userSpaceOnUse">
<stop offset="0.205" stop-color="white"/>
<stop offset="1" stop-color="#F0F1F5"/>
</linearGradient>
</defs>
</svg>
