<svg width="604" height="453" viewBox="0 0 604 453" fill="none" xmlns="http://www.w3.org/2000/svg">
<g filter="url(#filter0_d_2501_11004)">
<path d="M302 16C213.634 16 142 87.6344 142 176H462C462 87.6344 390.366 16 302 16Z" fill="#E4E6EB"/>
<rect x="259" y="364" width="85" height="32" rx="16" fill="#0A0A0A"/>
<path d="M294.033 373.912V386.162H292.789V379.873H291.326V385.561H290.096V374.145H291.326V378.779H292.789V373.912H294.033ZM283.287 382.703C285.078 381.698 285.912 379.586 285.912 377.152V376.359H283.615V375.307H289.303V376.359H287.17V377.152C287.17 379.354 287.997 381.35 289.781 382.266L289.016 383.264C287.812 382.607 287.006 381.466 286.568 380.058C286.151 381.664 285.345 382.949 284.094 383.688L283.287 382.703ZM300.049 377.029C300.035 379.265 301.389 381.521 303.289 382.361L302.51 383.387C301.102 382.717 299.987 381.343 299.413 379.668C298.846 381.466 297.718 382.942 296.248 383.66L295.455 382.566C297.383 381.712 298.736 379.367 298.736 377.029V374.938H300.049V377.029ZM304.396 386.189V373.912H305.695V386.189H304.396ZM317.576 379.559V380.598H313.871V383.592H318.861V384.658H307.65V383.592H312.586V380.598H309.045V374.855H317.467V375.908H310.344V379.559H317.576Z" fill="white"/>
<path d="M281.772 301V291.102H288.417V292.797H283.823V295.203H288.075V296.898H283.823V299.305H288.431V301H281.772ZM289.976 301V293.576H291.903V294.875H291.985C292.3 294.007 293.052 293.48 294.05 293.48C295.068 293.48 295.827 294.021 296.073 294.875H296.142C296.449 294.034 297.297 293.48 298.384 293.48C299.758 293.48 300.722 294.39 300.722 296.01V301H298.698V296.406C298.705 295.559 298.199 295.148 297.536 295.148C296.777 295.148 296.326 295.675 296.333 296.461V301H294.364V296.352C294.371 295.62 293.906 295.148 293.216 295.148C292.525 295.148 291.992 295.702 291.999 296.543V301H289.976ZM302.28 303.789V293.576H304.276V294.82H304.358C304.639 294.219 305.227 293.48 306.478 293.48C308.118 293.48 309.492 294.752 309.485 297.295C309.492 299.776 308.173 301.123 306.478 301.123C305.268 301.123 304.646 300.426 304.358 299.811H304.304V303.789H302.28ZM304.263 297.281C304.256 298.621 304.83 299.503 305.835 299.51C306.867 299.503 307.428 298.594 307.421 297.281C307.428 295.989 306.881 295.094 305.835 295.094C304.823 295.094 304.256 295.948 304.263 297.281ZM314.708 293.576V295.094H313.313V298.717C313.307 299.312 313.601 299.455 314.011 299.469C314.216 299.469 314.571 299.448 314.817 299.428V301.027C314.599 301.062 314.236 301.103 313.737 301.096C312.274 301.103 311.276 300.446 311.29 299.004V295.094H310.265V293.576H311.29V291.799H313.313V293.576H314.708ZM317.169 303.789C316.772 303.782 316.403 303.775 316.144 303.748V302.176C316.403 302.196 316.711 302.203 316.964 302.203C317.367 302.203 317.688 302.162 317.935 301.52L318.058 301.205L315.392 293.576H317.511L319.069 299.045H319.151L320.724 293.576H322.87L319.972 301.82C319.548 303.017 318.734 303.782 317.169 303.789Z" fill="black"/>
<path d="M274.35 316.704V319.243H276V320.246H274.35V322.887H273.144V316.704H274.35ZM265.412 322.023C268.173 321.389 269.709 320.03 269.9 318.342H265.933V317.352H271.227C271.233 320.271 269.252 322.195 265.856 323.001L265.412 322.023ZM266.631 327.914V323.458H267.748V324.74H269.513V323.458H270.617V327.108C271.938 326.524 272.56 325.324 272.56 324.271V323.331H273.715V324.232C273.715 325.343 274.331 326.549 275.657 327.114L275.022 328.028C274.096 327.622 273.486 326.905 273.144 326.061C272.788 326.898 272.172 327.622 271.252 328.028L270.617 327.133V327.914H266.631ZM267.748 326.975H269.513V325.654H267.748V326.975ZM286.067 316.704V328.104H284.861V316.704H286.067ZM277.041 321.541C277.041 319.11 278.266 317.561 279.986 317.555C281.675 317.561 282.919 319.11 282.919 321.541C282.919 323.998 281.675 325.546 279.986 325.54C278.266 325.546 277.041 323.998 277.041 321.541ZM278.209 321.541C278.203 323.35 278.926 324.461 279.986 324.461C281.027 324.461 281.751 323.35 281.751 321.541C281.751 319.757 281.027 318.64 279.986 318.634C278.926 318.64 278.203 319.757 278.209 321.541ZM293.481 323.369V324.689H295.259V323.369H296.376V327.939H292.352V323.369H293.481ZM291.222 319.814C291.215 318.259 292.466 317.187 294.205 317.187C295.703 317.187 296.865 318.031 297.112 319.307H299.334V316.704H300.54V322.734H299.334V320.297H297.119C296.884 321.598 295.716 322.461 294.205 322.455C292.466 322.461 291.215 321.382 291.222 319.814ZM292.377 319.814C292.371 320.798 293.132 321.471 294.205 321.478C295.259 321.471 296.008 320.798 296.008 319.814C296.008 318.843 295.259 318.183 294.205 318.189C293.132 318.183 292.371 318.843 292.377 319.814ZM293.481 327H295.259V325.604H293.481V327ZM296.439 327.114C297.811 326.549 298.483 325.356 298.483 324.22V323.293H299.677V324.22C299.67 325.413 300.343 326.619 301.746 327.114L301.124 328.028C300.096 327.635 299.429 326.892 299.067 325.991C298.693 326.867 298.026 327.622 297.049 328.028L296.439 327.114ZM304.768 323.521V324.728H310.112V323.521H311.318V327.939H303.574V323.521H304.768ZM302.292 322.811V321.808H312.664V322.811H302.292ZM302.851 320.157C305.053 319.872 306.856 318.659 306.862 317.313V316.831H308.094V317.313C308.1 318.621 309.916 319.891 312.093 320.157L311.661 321.109C309.82 320.855 308.214 319.979 307.484 318.767C306.748 319.986 305.136 320.855 303.308 321.109L302.851 320.157ZM304.768 326.975H310.112V325.667H304.768V326.975ZM322.973 316.704V328.079H321.767V316.704H322.973ZM314.226 325.185V317.809H315.419V324.144C317.082 324.137 318.828 323.991 320.649 323.623L320.814 324.639C318.802 325.051 316.974 325.191 315.178 325.185H314.226ZM333.624 316.704V321.109H335.452V322.1H333.624V328.104H332.418V316.704H333.624ZM325.245 325.273V317.796H330.564V318.773H326.451V324.271C328.362 324.264 329.79 324.182 331.415 323.89L331.567 324.905C329.784 325.223 328.273 325.28 326.159 325.273H325.245ZM337.293 327.089C336.798 327.083 336.385 326.683 336.392 326.188C336.385 325.692 336.798 325.286 337.293 325.286C337.782 325.286 338.188 325.692 338.194 326.188C338.188 326.683 337.782 327.083 337.293 327.089Z" fill="#666666"/>
<path d="M265.609 260V256.328L275.609 246.68C278.461 243.828 279.945 242.148 279.945 239.766C279.945 237.129 277.855 235.469 275.102 235.469C272.191 235.469 270.316 237.285 270.336 240.156H265.492C265.473 234.805 269.496 231.328 275.141 231.328C280.922 231.328 284.809 234.785 284.828 239.531C284.809 242.715 283.285 245.293 277.719 250.547L272.68 255.547V255.742H285.258V260H265.609ZM300.141 260.391C293.324 260.391 289.262 255.117 289.281 245.859C289.262 236.641 293.363 231.328 300.141 231.328C306.918 231.328 311 236.641 311 245.859C311 255.137 306.938 260.391 300.141 260.391ZM294.398 245.859C294.398 252.656 296.586 256.113 300.141 256.133C303.676 256.113 305.883 252.656 305.883 245.859C305.863 239.121 303.676 235.566 300.141 235.547C296.605 235.566 294.418 239.121 294.398 245.859ZM314.75 254.727V250.664L326.977 231.719H333.305V250.547H337.016V254.727H333.305V260H328.461V254.727H314.75ZM319.945 250.547H328.539V237.5H328.227L319.945 250.352V250.547Z" fill="black"/>
<g filter="url(#filter1_f_2501_11004)">
<ellipse cx="302" cy="184" rx="60" ry="8" fill="#E4E6EB"/>
</g>
<path d="M252.224 113.398C252.652 111.797 254.297 110.848 255.898 111.276L256.864 111.535C257.931 111.821 258.564 112.918 258.278 113.985L248.443 150.69C248.157 151.757 247.06 152.39 245.993 152.104L244.061 151.587C242.995 151.301 242.361 150.204 242.647 149.137L252.224 113.398Z" fill="white"/>
<path d="M351.776 113.398C351.348 111.797 349.703 110.848 348.102 111.276L347.136 111.535C346.069 111.821 345.436 112.918 345.722 113.985L355.557 150.69C355.843 151.757 356.94 152.39 358.007 152.104L359.939 151.587C361.005 151.301 361.639 150.204 361.353 149.137L351.776 113.398Z" fill="white"/>
<mask id="path-12-inside-1_2501_11004" fill="white">
<path d="M252 115C252 111.686 254.686 109 258 109H346C349.314 109 352 111.686 352 115V178C352 181.314 349.314 184 346 184H258C254.686 184 252 181.314 252 178V115Z"/>
</mask>
<path d="M252 115C252 111.686 254.686 109 258 109H346C349.314 109 352 111.686 352 115V178C352 181.314 349.314 184 346 184H258C254.686 184 252 181.314 252 178V115Z" fill="url(#paint0_linear_2501_11004)"/>
<path d="M252 109H352H252ZM352 178C352 182.418 348.418 186 344 186H260C255.582 186 252 182.418 252 178C252 180.209 254.686 182 258 182H346C349.314 182 352 180.209 352 178ZM252 184V109V184ZM352 109V184V109Z" fill="#E4E6EB" mask="url(#path-12-inside-1_2501_11004)"/>
<path d="M255 113C255 112.448 255.448 112 256 112H348C348.552 112 349 112.448 349 113V117C349 117.552 348.552 118 348 118H256C255.448 118 255 117.552 255 117V113Z" fill="#D2D5DB"/>
<circle cx="302" cy="109" r="20" fill="url(#paint1_linear_2501_11004)"/>
<g filter="url(#filter2_d_2501_11004)">
<circle cx="281" cy="118" r="6" fill="url(#paint2_linear_2501_11004)"/>
</g>
<g filter="url(#filter3_d_2501_11004)">
<circle cx="322" cy="118" r="6" fill="url(#paint3_linear_2501_11004)"/>
</g>
<rect x="295" y="105" width="3" height="6" rx="1.5" fill="#D2D5DB"/>
<rect x="306" y="105" width="3" height="6" rx="1.5" fill="#D2D5DB"/>
<mask id="path-20-inside-2_2501_11004" fill="white">
<path d="M252 124C252 120.686 254.686 118 258 118H346C349.314 118 352 120.686 352 124V152C352 155.314 349.314 158 346 158H258C254.686 158 252 155.314 252 152V124Z"/>
</mask>
<path d="M252 124C252 120.686 254.686 118 258 118H346C349.314 118 352 120.686 352 124V152C352 155.314 349.314 158 346 158H258C254.686 158 252 155.314 252 152V124Z" fill="white"/>
<path d="M252 118H352H252ZM352 152C352 156.971 347.971 161 343 161H261C256.029 161 252 156.971 252 152C252 153.657 254.686 155 258 155H346C349.314 155 352 153.657 352 152ZM252 158V118V158ZM352 118V158V118Z" fill="#F2F3F5" mask="url(#path-20-inside-2_2501_11004)"/>
</g>
<defs>
<filter id="filter0_d_2501_11004" x="-8" y="-8" width="620" height="469" filterUnits="userSpaceOnUse" color-interpolation-filters="sRGB">
<feFlood flood-opacity="0" result="BackgroundImageFix"/>
<feColorMatrix in="SourceAlpha" type="matrix" values="0 0 0 0 0 0 0 0 0 0 0 0 0 0 0 0 0 0 127 0" result="hardAlpha"/>
<feOffset/>
<feGaussianBlur stdDeviation="4"/>
<feComposite in2="hardAlpha" operator="out"/>
<feColorMatrix type="matrix" values="0 0 0 0 0 0 0 0 0 0 0 0 0 0 0 0 0 0 0.02 0"/>
<feBlend mode="normal" in2="BackgroundImageFix" result="effect1_dropShadow_2501_11004"/>
<feBlend mode="normal" in="SourceGraphic" in2="effect1_dropShadow_2501_11004" result="shape"/>
</filter>
<filter id="filter1_f_2501_11004" x="238" y="172" width="128" height="24" filterUnits="userSpaceOnUse" color-interpolation-filters="sRGB">
<feFlood flood-opacity="0" result="BackgroundImageFix"/>
<feBlend mode="normal" in="SourceGraphic" in2="BackgroundImageFix" result="shape"/>
<feGaussianBlur stdDeviation="2" result="effect1_foregroundBlur_2501_11004"/>
</filter>
<filter id="filter2_d_2501_11004" x="271" y="110" width="20" height="20" filterUnits="userSpaceOnUse" color-interpolation-filters="sRGB">
<feFlood flood-opacity="0" result="BackgroundImageFix"/>
<feColorMatrix in="SourceAlpha" type="matrix" values="0 0 0 0 0 0 0 0 0 0 0 0 0 0 0 0 0 0 127 0" result="hardAlpha"/>
<feOffset dy="2"/>
<feGaussianBlur stdDeviation="2"/>
<feComposite in2="hardAlpha" operator="out"/>
<feColorMatrix type="matrix" values="0 0 0 0 0.843137 0 0 0 0 0.854902 0 0 0 0 0.878431 0 0 0 1 0"/>
<feBlend mode="normal" in2="BackgroundImageFix" result="effect1_dropShadow_2501_11004"/>
<feBlend mode="normal" in="SourceGraphic" in2="effect1_dropShadow_2501_11004" result="shape"/>
</filter>
<filter id="filter3_d_2501_11004" x="312" y="110" width="20" height="20" filterUnits="userSpaceOnUse" color-interpolation-filters="sRGB">
<feFlood flood-opacity="0" result="BackgroundImageFix"/>
<feColorMatrix in="SourceAlpha" type="matrix" values="0 0 0 0 0 0 0 0 0 0 0 0 0 0 0 0 0 0 127 0" result="hardAlpha"/>
<feOffset dy="2"/>
<feGaussianBlur stdDeviation="2"/>
<feComposite in2="hardAlpha" operator="out"/>
<feColorMatrix type="matrix" values="0 0 0 0 0.843137 0 0 0 0 0.854902 0 0 0 0 0.878431 0 0 0 1 0"/>
<feBlend mode="normal" in2="BackgroundImageFix" result="effect1_dropShadow_2501_11004"/>
<feBlend mode="normal" in="SourceGraphic" in2="effect1_dropShadow_2501_11004" result="shape"/>
</filter>
<linearGradient id="paint0_linear_2501_11004" x1="302" y1="109" x2="302" y2="184" gradientUnits="userSpaceOnUse">
<stop offset="0.72" stop-color="white"/>
<stop offset="1" stop-color="#F0F1F5"/>
</linearGradient>
<linearGradient id="paint1_linear_2501_11004" x1="302" y1="89" x2="302" y2="129" gradientUnits="userSpaceOnUse">
<stop offset="0.51" stop-color="white"/>
<stop offset="1" stop-color="#F0F1F5"/>
</linearGradient>
<linearGradient id="paint2_linear_2501_11004" x1="281" y1="112" x2="281" y2="124" gradientUnits="userSpaceOnUse">
<stop offset="0.205" stop-color="white"/>
<stop offset="1" stop-color="#F0F1F5"/>
</linearGradient>
<linearGradient id="paint3_linear_2501_11004" x1="322" y1="112" x2="322" y2="124" gradientUnits="userSpaceOnUse">
<stop offset="0.205" stop-color="white"/>
<stop offset="1" stop-color="#F0F1F5"/>
</linearGradient>
</defs>
</svg>
